HIERARCHY
ROOT root
{
	OFFSET 0.000000 0.000000 0.000000
	CHANNELS 6 Xposition Yposition Zposition Zrotation Yrotation Xrotation
	JOINT lhip
	{
		OFFSET 0.058581 -0.082280 -0.017664
		CHANNELS 3 Zrotation Yrotation Xrotation
		JOINT lknee
		{
			OFFSET 0.043451 -0.386469 0.008037
			CHANNELS 3 Zrotation Yrotation Xrotation
			JOINT lankle
			{
				OFFSET -0.014790 -0.426874 -0.037428
				CHANNELS 3 Zrotation Yrotation Xrotation
				JOINT ltoe
				{
					OFFSET 0.041054 -0.060286 0.122042
					CHANNELS 3 Zrotation Yrotation Xrotation
					End Site
					{
						OFFSET 0.000000 0.000000 0.000000
					}
				}
			}
		}
	}
	JOINT rhip
	{
		OFFSET -0.060310 -0.090513 -0.013543
		CHANNELS 3 Zrotation Yrotation Xrotation
		JOINT rknee
		{
			OFFSET -0.043257 -0.383688 -0.004843
			CHANNELS 3 Zrotation Yrotation Xrotation
			JOINT rankle
			{
				OFFSET 0.019056 -0.420046 -0.034562
				CHANNELS 3 Zrotation Yrotation Xrotation
				JOINT rtoe
				{
					OFFSET -0.034840 -0.062106 0.130323
					CHANNELS 3 Zrotation Yrotation Xrotation
					End Site
					{
						OFFSET 0.000000 0.000000 0.000000
					}
				}
			}
		}
	}
	JOINT lowerback
	{
		OFFSET 0.004439 0.124404 -0.038385
		CHANNELS 3 Zrotation Yrotation Xrotation
		JOINT upperback
		{
			OFFSET 0.004488 0.137956 0.026820
			CHANNELS 3 Zrotation Yrotation Xrotation
			JOINT chest
			{
				OFFSET -0.002265 0.056032 0.002855
				CHANNELS 3 Zrotation Yrotation Xrotation
				JOINT lowerneck
				{
					OFFSET -0.013390 0.211636 -0.033468
					CHANNELS 3 Zrotation Yrotation Xrotation
					JOINT upperneck
					{
						OFFSET 0.010113 0.088937 0.050410
						CHANNELS 3 Zrotation Yrotation Xrotation
						End Site
						{
							OFFSET 0.000000 0.000000 0.000000
						}
					}
				}
				JOINT lclavicle
				{
					OFFSET 0.071702 0.114000 -0.018898
					CHANNELS 3 Zrotation Yrotation Xrotation
					JOINT lshoulder
					{
						OFFSET 0.122921 0.045205 -0.019046
						CHANNELS 3 Zrotation Yrotation Xrotation
						JOINT lelbow
						{
							OFFSET 0.255332 -0.015649 -0.022946
							CHANNELS 3 Zrotation Yrotation Xrotation
							JOINT lwrist
							{
								OFFSET 0.265709 0.012698 -0.007375
								CHANNELS 3 Zrotation Yrotation Xrotation
								End Site
								{
									OFFSET 0.000000 0.000000 0.000000
								}
							}
						}
					}
				}
				JOINT rclavicle
				{
					OFFSET -0.082954 0.112472 -0.023707
					CHANNELS 3 Zrotation Yrotation Xrotation
					JOINT rshoulder
					{
						OFFSET -0.113228 0.046853 -0.008472
						CHANNELS 3 Zrotation Yrotation Xrotation
						JOINT relbow
						{
							OFFSET -0.260127 -0.014369 -0.031269
							CHANNELS 3 Zrotation Yrotation Xrotation
							JOINT rwrist
							{
								OFFSET -0.269108 0.006794 -0.006027
								CHANNELS 3 Zrotation Yrotation Xrotation
								End Site
								{
									OFFSET 0.000000 0.000000 0.000000
								}
							}
						}
					}
				}
			}
		}
	}
}
MOTION
Frames: 5
Frame Time: 0.033333
-1.313805 0.479509 1.008417 -32.900403 -1.775714 85.544123 6.603777 8.706055 5.519001 -6.714178 0.637297 4.010969 0.132443 16.634730 -14.159971 0.000000 -0.000000 0.000000 -8.906732 -8.281022 -3.378189 1.850423 -5.822339 20.157021 5.791595 -14.280223 -14.452244 0.000000 -0.000000 0.000000 4.569202 3.714018 0.412252 -3.433980 3.732638 1.283004 -5.215613 4.220399 0.175865 -2.010692 -13.709200 -2.069028 -6.428491 -1.689919 25.174919 -25.313361 3.384297 -14.394889 -37.970024 8.523340 30.862641 -6.311795 -32.954417 21.440934 8.175587 -8.157600 -14.152913 11.667480 7.214785 -14.691784 13.629961 13.048017 19.348115 161.238788 59.190386 141.685789 -15.119986 12.022068 -58.711855 
-1.317684 0.484865 1.008578 -32.622291 -2.025278 85.337420 6.793073 8.586926 5.176752 -6.811117 0.701212 4.707622 -0.136216 16.585328 -13.889074 0.000000 -0.000000 0.000000 -8.757701 -8.180570 -3.348178 1.849476 -5.824665 20.360779 5.566182 -14.434424 -14.771740 0.000000 -0.000000 0.000000 4.608997 3.607876 0.593925 -3.245586 3.606386 1.358591 -5.038624 4.131040 0.399961 -1.553266 -14.162406 -1.717368 -5.802106 -1.861056 24.950245 -25.308913 3.550031 -14.216376 -38.058990 8.681210 30.645260 -6.476152 -33.326845 21.677373 8.142195 -8.168329 -14.201317 11.296274 7.011796 -14.781785 13.165659 13.278082 18.765149 161.625210 59.075999 142.063962 -15.023033 12.046101 -58.813032 
-1.321367 0.490544 1.008766 -32.359316 -2.273583 85.074398 7.026778 8.380233 4.565848 -7.014403 0.957395 6.010323 -0.449839 16.546063 -13.762273 0.000000 -0.000000 0.000000 -8.595850 -7.958187 -3.285941 1.852599 -5.861197 20.560638 5.278030 -14.649294 -15.110638 0.000000 -0.000000 0.000000 4.614168 3.480651 0.918170 -3.050249 3.441992 1.379118 -4.826214 4.035412 0.654022 -1.000938 -14.566454 -1.494165 -5.081594 -2.020930 24.528400 -25.211003 3.698821 -14.027322 -38.331682 8.780404 30.424568 -6.645044 -33.742334 21.893728 8.063229 -8.101144 -14.350539 10.872455 6.857659 -14.894097 12.801103 13.619732 18.146708 161.808041 59.060305 142.384503 -15.020330 12.049042 -58.693151 
-1.324920 0.496301 1.008886 -32.109609 -2.558884 84.766383 7.350651 8.124433 3.606916 -7.442544 1.363797 8.107695 -0.839844 16.451433 -13.757639 0.000000 -0.000000 0.000000 -8.528758 -7.734055 -3.116222 1.922499 -5.925270 20.668988 4.913610 -14.798899 -15.445927 0.000000 -0.000000 0.000000 4.570352 3.389270 1.286272 -2.864876 3.231016 1.478430 -4.621449 3.924091 0.870699 -0.393341 -14.912084 -1.278321 -4.277228 -2.221431 23.918540 -25.163691 3.811979 -13.808905 -38.534302 8.767934 30.194156 -6.829098 -34.204028 22.246461 7.885592 -8.167768 -14.344246 10.438110 6.739153 -15.011354 12.515307 14.011105 17.509813 161.939706 59.078810 142.650296 -15.014559 12.049096 -58.694182 
-1.328196 0.501906 1.008980 -31.814316 -2.828225 84.414267 7.877399 7.833777 2.224515 -8.146237 1.869057 11.127609 -1.389829 16.143065 -13.704171 0.000000 -0.000000 0.000000 -8.577000 -7.679475 -2.804977 2.119693 -6.043553 20.627675 4.488495 -14.813903 -15.741723 0.000000 -0.000000 0.000000 4.550353 3.338178 1.813525 -2.683525 2.926924 1.361880 -4.422506 3.776377 1.133573 0.183923 -15.232982 -1.021802 -3.481783 -2.304199 23.313312 -25.185314 3.872340 -13.479663 -38.742702 8.698603 30.021856 -6.978383 -34.561563 22.831056 8.212064 -8.275654 -14.547510 10.008761 6.667387 -15.101291 12.214030 14.470181 16.798008 161.971448 59.050220 142.664940 -15.089213 11.948124 -59.002536 
